<mxfile host="app.diagrams.net" modified="2020-09-27T10:02:36.868Z" agent="5.0 (Windows)" etag="slYBvJD-XdDR5U9s7AB0" version="13.7.5" type="github">
  <diagram id="fH-2xh8jzHFzDoGEG2FD" name="Page-1">
    <mxGraphModel dx="1038" dy="547" grid="1" gridSize="10" guides="1" tooltips="1" connect="1" arrows="1" fold="1" page="1" pageScale="1" pageWidth="850" pageHeight="1100" math="0" shadow="0">
      <root>
        <mxCell id="0" />
        <mxCell id="1" parent="0" />
        <mxCell id="AYw8XfXgVCXr3-GL2XyS-1" value="create geometry" style="ellipse;whiteSpace=wrap;html=1;" parent="1" vertex="1">
          <mxGeometry x="240" y="50" width="170" height="40" as="geometry" />
        </mxCell>
        <mxCell id="AYw8XfXgVCXr3-GL2XyS-2" value="User" style="shape=umlActor;verticalLabelPosition=bottom;verticalAlign=top;html=1;outlineConnect=0;" parent="1" vertex="1">
          <mxGeometry x="60" y="160" width="30" height="60" as="geometry" />
        </mxCell>
        <mxCell id="nCUEm0m7XjJb0uW27EBz-1" value="modify geometry" style="ellipse;whiteSpace=wrap;html=1;" vertex="1" parent="1">
          <mxGeometry x="240" y="130" width="170" height="40" as="geometry" />
        </mxCell>
        <mxCell id="nCUEm0m7XjJb0uW27EBz-2" value="raytrace geometry" style="ellipse;whiteSpace=wrap;html=1;" vertex="1" parent="1">
          <mxGeometry x="240" y="220" width="170" height="40" as="geometry" />
        </mxCell>
        <mxCell id="nCUEm0m7XjJb0uW27EBz-3" value="&lt;div&gt;visualize geometry&lt;/div&gt;" style="ellipse;whiteSpace=wrap;html=1;" vertex="1" parent="1">
          <mxGeometry x="240" y="290" width="170" height="40" as="geometry" />
        </mxCell>
        <mxCell id="nCUEm0m7XjJb0uW27EBz-4" value="visualize result after tracing" style="ellipse;whiteSpace=wrap;html=1;" vertex="1" parent="1">
          <mxGeometry x="240" y="360" width="170" height="40" as="geometry" />
        </mxCell>
        <mxCell id="nCUEm0m7XjJb0uW27EBz-6" value="" style="endArrow=none;html=1;entryX=0;entryY=0.5;entryDx=0;entryDy=0;" edge="1" parent="1" target="AYw8XfXgVCXr3-GL2XyS-1">
          <mxGeometry width="50" height="50" relative="1" as="geometry">
            <mxPoint x="100" y="160" as="sourcePoint" />
            <mxPoint x="190" y="90" as="targetPoint" />
          </mxGeometry>
        </mxCell>
        <mxCell id="nCUEm0m7XjJb0uW27EBz-7" value="" style="endArrow=none;html=1;entryX=0;entryY=0.5;entryDx=0;entryDy=0;" edge="1" parent="1">
          <mxGeometry width="50" height="50" relative="1" as="geometry">
            <mxPoint x="110" y="180" as="sourcePoint" />
            <mxPoint x="240" y="150" as="targetPoint" />
          </mxGeometry>
        </mxCell>
        <mxCell id="nCUEm0m7XjJb0uW27EBz-8" value="" style="endArrow=none;html=1;entryX=0;entryY=0.5;entryDx=0;entryDy=0;" edge="1" parent="1">
          <mxGeometry width="50" height="50" relative="1" as="geometry">
            <mxPoint x="110" y="210" as="sourcePoint" />
            <mxPoint x="240" y="240" as="targetPoint" />
          </mxGeometry>
        </mxCell>
        <mxCell id="nCUEm0m7XjJb0uW27EBz-9" value="" style="endArrow=none;html=1;entryX=0;entryY=0.5;entryDx=0;entryDy=0;" edge="1" parent="1">
          <mxGeometry width="50" height="50" relative="1" as="geometry">
            <mxPoint x="110" y="240" as="sourcePoint" />
            <mxPoint x="240" y="310" as="targetPoint" />
          </mxGeometry>
        </mxCell>
        <mxCell id="nCUEm0m7XjJb0uW27EBz-10" value="" style="endArrow=none;html=1;entryX=0;entryY=0.5;entryDx=0;entryDy=0;" edge="1" parent="1">
          <mxGeometry width="50" height="50" relative="1" as="geometry">
            <mxPoint x="100" y="260" as="sourcePoint" />
            <mxPoint x="240" y="380" as="targetPoint" />
          </mxGeometry>
        </mxCell>
      </root>
    </mxGraphModel>
  </diagram>
</mxfile>
